<?xml version="1.0" encoding="UTF-8"?>
<svg version="1.1" xmlns="http://www.w3.org/2000/svg" width="64" height="82">
<path d="M0 0 C0.82062424 0.02017181 1.64124847 0.04034363 2.48674011 0.06112671 C3.80875175 0.10942123 3.80875175 0.10942123 5.1574707 0.15869141 C6.5161602 0.19623032 6.5161602 0.19623032 7.90229797 0.23452759 C10.79633031 0.31672182 13.68967965 0.4133136 16.58325195 0.51025391 C18.54481256 0.56849406 20.50640123 0.62579732 22.46801758 0.68212891 C27.27765545 0.82229984 32.08673016 0.97538497 36.89575195 1.13525391 C38.01831326 3.38037653 38.02988958 4.6498204 38.02075195 7.13525391 C38.02461914 8.18712891 38.02461914 8.18712891 38.02856445 9.26025391 C37.89575195 11.13525391 37.89575195 11.13525391 36.89575195 13.13525391 C32.27575195 13.13525391 27.65575195 13.13525391 22.89575195 13.13525391 C22.89575195 26.66525391 22.89575195 40.19525391 22.89575195 54.13525391 C20.28655367 55.43985305 18.3063258 55.26791331 15.39575195 55.26025391 C14.41606445 55.26283203 13.43637695 55.26541016 12.42700195 55.26806641 C9.89575195 55.13525391 9.89575195 55.13525391 7.89575195 54.13525391 C7.89575195 40.60525391 7.89575195 27.07525391 7.89575195 13.13525391 C3.27575195 13.13525391 -1.34424805 13.13525391 -6.10424805 13.13525391 C-7.27476234 10.79422532 -7.30347265 9.24172437 -7.35424805 6.63525391 C-7.3800293 5.84119141 -7.40581055 5.04712891 -7.43237305 4.22900391 C-7.3240918 3.53806641 -7.21581055 2.84712891 -7.10424805 2.13525391 C-4.00379942 0.06828815 -3.47767176 -0.10700528 0 0 Z " fill="#58C8F0" transform="translate(19.104248046875,17.86474609375)"/>
<path d="M0 0 C0.82062424 0.02017181 1.64124847 0.04034363 2.48674011 0.06112671 C3.80875175 0.10942123 3.80875175 0.10942123 5.1574707 0.15869141 C6.5161602 0.19623032 6.5161602 0.19623032 7.90229797 0.23452759 C10.79633031 0.31672182 13.68967965 0.4133136 16.58325195 0.51025391 C18.54481256 0.56849406 20.50640123 0.62579732 22.46801758 0.68212891 C27.27765545 0.82229984 32.08673016 0.97538497 36.89575195 1.13525391 C38.01831326 3.38037653 38.02988958 4.6498204 38.02075195 7.13525391 C38.02461914 8.18712891 38.02461914 8.18712891 38.02856445 9.26025391 C37.89575195 11.13525391 37.89575195 11.13525391 36.89575195 13.13525391 C32.27575195 13.13525391 27.65575195 13.13525391 22.89575195 13.13525391 C22.89575195 26.66525391 22.89575195 40.19525391 22.89575195 54.13525391 C20.28655367 55.43985305 18.3063258 55.26791331 15.39575195 55.26025391 C14.41606445 55.26283203 13.43637695 55.26541016 12.42700195 55.26806641 C9.89575195 55.13525391 9.89575195 55.13525391 7.89575195 54.13525391 C7.89575195 40.60525391 7.89575195 27.07525391 7.89575195 13.13525391 C3.27575195 13.13525391 -1.34424805 13.13525391 -6.10424805 13.13525391 C-7.27476234 10.79422532 -7.30347265 9.24172437 -7.35424805 6.63525391 C-7.3800293 5.84119141 -7.40581055 5.04712891 -7.43237305 4.22900391 C-7.3240918 3.53806641 -7.21581055 2.84712891 -7.10424805 2.13525391 C-4.00379942 0.06828815 -3.47767176 -0.10700528 0 0 Z M-5.10424805 2.13525391 C-5.10424805 5.43525391 -5.10424805 8.73525391 -5.10424805 12.13525391 C0.50575195 12.46525391 6.11575195 12.79525391 11.89575195 13.13525391 C11.88415039 15.72240234 11.87254883 18.30955078 11.8605957 20.97509766 C11.85280533 23.47045774 11.84672846 25.96581648 11.84082031 28.46118164 C11.83577991 30.20044558 11.82894765 31.93970527 11.8203125 33.67895508 C11.80823404 36.17351327 11.80252087 38.66801564 11.7980957 41.16259766 C11.79293442 41.94489243 11.78777313 42.72718719 11.78245544 43.53318787 C11.78225969 45.40092505 11.83375501 47.26854595 11.89575195 49.13525391 C13.021093 50.4914389 13.021093 50.4914389 15.95825195 50.19775391 C16.92762695 50.17712891 17.89700195 50.15650391 18.89575195 50.13525391 C18.9204665 45.20565151 18.93861886 40.27608517 18.95068359 35.34643555 C18.95571308 33.66934582 18.96253743 31.99226048 18.97119141 30.31518555 C18.98331755 27.90493691 18.9889941 25.49474623 18.9934082 23.08447266 C18.99856949 22.33437424 19.00373077 21.58427582 19.00904846 20.81144714 C19.0093898 17.64574159 18.90462538 15.16187419 17.89575195 12.13525391 C23.83575195 12.13525391 29.77575195 12.13525391 35.89575195 12.13525391 C35.89575195 8.83525391 35.89575195 5.53525391 35.89575195 2.13525391 C22.36575195 2.13525391 8.83575195 2.13525391 -5.10424805 2.13525391 Z " fill="#B2E6F5" transform="translate(19.104248046875,17.86474609375)"/>
<path d="M0 0 C1.25635254 -0.00290039 1.25635254 -0.00290039 2.53808594 -0.00585938 C3.86501465 0.0009082 3.86501465 0.0009082 5.21875 0.0078125 C6.11625977 0.00974609 7.01376953 0.01167969 7.93847656 0.01367188 C14.23851227 0.05465512 20.4643424 0.32949409 26.71875 1.1328125 C26.38875 2.4528125 26.05875 3.7728125 25.71875 5.1328125 C21.49772638 6.26954767 18.19178491 5.93121243 13.90625 5.1953125 C12.74480469 5.00066406 11.58335938 4.80601563 10.38671875 4.60546875 C9.50628906 4.44949219 8.62585937 4.29351563 7.71875 4.1328125 C8.37875 5.4528125 9.03875 6.7728125 9.71875 8.1328125 C7.26001232 7.99222774 4.80189825 7.84558251 2.34375 7.6953125 C1.64507812 7.65599609 0.94640625 7.61667969 0.2265625 7.57617188 C-5.0546875 7.24609375 -5.0546875 7.24609375 -7.28125 6.1328125 C-7.28125 4.4828125 -7.28125 2.8328125 -7.28125 1.1328125 C-4.51535072 0.21084607 -2.85322625 0.00427862 0 0 Z " fill="#4DC8F3" transform="translate(24.28125,21.8671875)"/>
<path d="M0 0 C13.53 0 27.06 0 41 0 C41 3.3 41 6.6 41 10 C36.38 10 31.76 10 27 10 C27 9.67 27 9.34 27 9 C30.96 9 34.92 9 39 9 C39 6.69 39 4.38 39 2 C27.12 2.33 15.24 2.66 3 3 C3 4.65 3 6.3 3 8 C6.3 8.33 9.6 8.66 13 9 C13 9.33 13 9.66 13 10 C8.71 10 4.42 10 0 10 C0 6.7 0 3.4 0 0 Z " fill="#80C9E3" transform="translate(14,20)"/>
<path d="M0 0 C0.33 0 0.66 0 1 0 C1.02505615 1.11036621 1.0501123 2.22073242 1.07592773 3.36474609 C1.16994915 7.47603319 1.27018257 11.58714923 1.37231445 15.69824219 C1.4156833 17.47912603 1.45735694 19.26005198 1.49731445 21.04101562 C1.5549699 23.59778548 1.6186777 26.15434298 1.68359375 28.7109375 C1.70030624 29.50994476 1.71701874 30.30895203 1.73423767 31.13217163 C1.75392991 35.19806368 1.75392991 35.19806368 3 39 C5.31 39 7.62 39 10 39 C10.33 26.46 10.66 13.92 11 1 C11.33 1 11.66 1 12 1 C12 14.2 12 27.4 12 41 C8.04 41 4.08 41 0 41 C0 27.47 0 13.94 0 0 Z " fill="#8DCDE5" transform="translate(28,30)"/>
<path d="M0 0 C1.76923828 0.01353516 1.76923828 0.01353516 3.57421875 0.02734375 C4.47785156 0.03894531 5.38148437 0.05054687 6.3125 0.0625 C5.66796875 0.32804687 5.0234375 0.59359375 4.359375 0.8671875 C3.34617187 1.45886719 3.34617187 1.45886719 2.3125 2.0625 C1.49665432 5.12158413 1.49665432 5.12158413 1.3125 8.0625 C-0.14630109 7.92142253 -1.60453551 7.77447585 -3.0625 7.625 C-4.28066406 7.50318359 -4.28066406 7.50318359 -5.5234375 7.37890625 C-7.6875 7.0625 -7.6875 7.0625 -9.6875 6.0625 C-9.6875 4.4125 -9.6875 2.7625 -9.6875 1.0625 C-6.26517028 -0.07827657 -3.60076783 -0.03565117 0 0 Z " fill="#5CC7EC" transform="translate(26.6875,21.9375)"/>
<path d="M0 0 C-0.33 0.99 -0.66 1.98 -1 3 C-3.31 3.33 -5.62 3.66 -8 4 C-8 3.01 -8 2.02 -8 1 C-5.10765685 0.17361624 -3.11257569 0 0 0 Z " fill="#51C8F4" transform="translate(25,23)"/>
</svg>
